<?xml version="1.0" encoding="utf-8"?>
<!-- Generator: Adobe Illustrator 17.1.0, SVG Export Plug-In . SVG Version: 6.00 Build 0)  -->
<!DOCTYPE svg PUBLIC "-//W3C//DTD SVG 1.1//EN" "http://www.w3.org/Graphics/SVG/1.1/DTD/svg11.dtd">
<svg version="1.1" id="Layer_1" xmlns="http://www.w3.org/2000/svg" xmlns:xlink="http://www.w3.org/1999/xlink" x="0px" y="0px"
	 viewBox="0 0 64 64" enable-background="new 0 0 64 64" xml:space="preserve">
<g>
	<g>
		<path fill="#FFFFFF" d="M57,3.4v3.2h3.1V8H57v3.3h-1.5V8h-3.1V6.6h3.1V3.4H57z"/>
	</g>
	<path fill="#FFFFFF" d="M64,0v14.7H0V0H64z M61.9,1.7H50.7V13h11.3V1.7z"/>
</g>
<g>
	<g>
		<path fill="#FFFFFF" d="M57,28v3.2h3.1v1.4H57V36h-1.5v-3.3h-3.1v-1.4h3.1V28H57z"/>
	</g>
	<path fill="#FFFFFF" d="M64,24.7v14.7H0V24.7H64z M61.9,26.4H50.7v11.3h11.3V26.4z"/>
</g>
<g>
	<g>
		<path fill="#FFFFFF" d="M57,52.7V56h3.1v1.4H57v3.3h-1.5v-3.3h-3.1V56h3.1v-3.2H57z"/>
	</g>
	<path fill="#FFFFFF" d="M64,49.3V64H0V49.3H64z M61.9,51H50.7v11.3h11.3V51z"/>
</g>
</svg>
